<svg width="400" height="150" viewBox="0 0 400 150" fill="none" xmlns="http://www.w3.org/2000/svg">
<path d="M126.037 88.6628C126.074 107.633 110.863 123.192 91.737 123.759H27.7778V109.666H91.737C103.448 109.178 112.537 99.3628 112.044 87.7591C111.57 76.8516 102.748 68.0924 91.737 67.6405H55.8222V53.5479H91.7185C110.863 54.1331 126.074 69.6924 126.037 88.6628ZM122.063 25.5183L119.459 31.5479L116.97 25.5183H113.337L117.767 34.3739V39.385H121.17V34.3739L125.715 25.5183H122.063ZM114.896 39.3628H111.267L110.489 36.7442H105.944L105.144 39.3628H101.607L106.607 25.4961H109.781L114.896 39.3628ZM109.667 34.2591L108.185 29.4924L106.704 34.2591H109.667ZM90.9407 81.6183H41.8667V39.5924H85.8259V25.4998H27.7778V95.6887H90.9407C92.8037 95.6702 94.5926 94.9368 95.9407 93.6554C97.2518 92.3183 97.9926 90.5294 97.9926 88.6628C97.9741 84.8035 94.837 81.6554 90.9407 81.6183ZM101.033 32.1109V32.7887C101.07 33.9739 100.785 35.1442 100.233 36.1998C99.7185 37.1998 98.9407 38.0257 97.9704 38.5924C96.9629 39.1591 95.8222 39.4405 94.6815 39.385H90.137V25.5183H94.5667C95.7259 25.4813 96.8481 25.7628 97.8555 26.3109C98.8259 26.8776 99.6222 27.7035 100.119 28.7035C100.77 29.7183 101.093 30.9072 101.033 32.1109ZM97.6333 32.1109C97.7296 31.0368 97.4444 29.9442 96.8333 29.0405C96.2815 28.3442 95.4444 27.9665 94.5704 28.022H93.4296V36.8776H94.5704C95.4259 36.9146 96.2259 36.5368 96.7185 35.8591C97.3259 34.9554 97.6111 33.8813 97.5185 32.7887V32.1109H97.6333Z" fill="url(#paint0_linear_8398_33846)"/>
<path d="M370.033 70.3273C368.574 67.4532 366.507 65.194 363.833 63.5569C361.159 61.9162 358.004 61.0977 354.367 61.0977C350.796 61.0977 347.674 61.9051 345 63.5236C342.326 65.1199 340.248 67.3643 338.767 70.2606C337.285 73.1347 336.544 76.4717 336.544 80.268C336.544 84.0421 337.263 87.3754 338.7 90.2754C340.159 93.1495 342.226 95.4088 344.9 97.0458C347.574 98.6865 350.73 99.5051 354.367 99.5051C357.981 99.5051 361.126 98.6977 363.8 97.0791C366.474 95.4384 368.541 93.1828 370 90.3088C371.481 87.4125 372.222 84.0643 372.222 80.268C372.222 76.5125 371.493 73.2014 370.033 70.3273ZM362.148 89.3606C360.441 91.6977 357.848 92.8643 354.367 92.8643C350.974 92.8643 348.404 91.7199 346.652 89.4273C344.9 87.1347 344.026 84.0828 344.026 80.2643C344.026 77.794 344.396 75.6273 345.137 73.7606C345.878 71.8754 347.011 70.4014 348.541 69.3458C350.067 68.268 352.011 67.7273 354.37 67.7273C357.807 67.7273 360.389 68.8717 362.119 71.1643C363.87 73.431 364.744 76.4643 364.744 80.2606C364.744 83.9717 363.878 87.0014 362.148 89.3606Z" fill="#343A40"/>
<path d="M328.452 62.1055H321.411V98.4907H328.452V62.1055Z" fill="#343A40"/>
<path d="M328.452 49.3047H321.411V56.1417H328.452V49.3047Z" fill="#343A40"/>
<path d="M310.115 91.0469H302.67V98.4913H310.115V91.0469Z" fill="#343A40"/>
<path d="M284.167 89.4536L273.411 62.1055H266.067L280.789 98.3351L274.793 114.661H281.496L301.578 62.1055H294.433L284.167 89.4536Z" fill="#343A40"/>
<path d="M261.885 68.0345C260.763 65.6308 258.989 63.8789 256.563 62.7789C254.159 61.6567 251.33 61.0938 248.074 61.0938C243.874 61.0938 240.504 62.016 237.967 63.8567C235.452 65.6975 233.744 68.1789 232.844 71.3012L239.415 73.3234C240.044 71.2789 241.156 69.8197 242.748 68.9456C244.344 68.0456 246.096 67.5975 248.004 67.5975C251.037 67.5975 253.17 68.2937 254.404 69.6863C255.5 70.8826 256.104 72.6419 256.207 74.9641C254.822 75.1567 253.448 75.353 252.044 75.5456C249.8 75.8604 247.652 76.1975 245.611 76.5567C243.567 76.916 241.737 77.3308 240.119 77.8049C238.256 78.4123 236.681 79.2086 235.404 80.1974C234.122 81.1641 233.159 82.3419 232.507 83.7345C231.856 85.1271 231.53 86.7456 231.53 88.5863C231.53 90.5641 231.989 92.3826 232.911 94.0456C233.856 95.6863 235.237 97.0086 237.056 98.0197C238.874 99.0086 241.133 99.5012 243.826 99.5012C247.219 99.5012 250.07 98.8271 252.381 97.4789C254.13 96.453 255.648 95.0308 256.93 93.2123V98.49H263.163V76.0863C263.163 74.5604 263.096 73.1345 262.959 71.8086C262.83 70.4826 262.47 69.2271 261.885 68.0345ZM255.419 86.5308C255.148 87.7197 254.578 88.8678 253.7 89.9678C252.826 91.0678 251.667 91.9789 250.23 92.6974C248.793 93.3937 247.074 93.7419 245.074 93.7419C243.57 93.7419 242.333 93.5049 241.367 93.0345C240.4 92.5641 239.681 91.9345 239.211 91.1493C238.741 90.3419 238.504 89.4641 238.504 88.5234C238.504 87.5567 238.719 86.7382 239.144 86.0641C239.593 85.39 240.189 84.816 240.93 84.3456C241.693 83.8752 242.559 83.4678 243.522 83.1345C244.667 82.7752 245.97 82.4715 247.43 82.2234C248.911 81.953 250.563 81.6826 252.381 81.416C253.548 81.2419 254.804 81.0567 256.133 80.8567C256.119 81.453 256.089 82.1271 256.052 82.9012C256.011 84.2382 255.8 85.453 255.419 86.5308Z" fill="#343A40"/>
<path d="M217.052 64.6212C216.656 64.2694 216.244 63.9323 215.804 63.6249C213.467 61.9397 210.581 61.099 207.144 61.099C203.73 61.099 200.778 61.9397 198.285 63.6249C195.815 65.2879 193.907 67.5657 192.559 70.462C191.211 73.336 190.537 76.6064 190.537 80.2657C190.537 83.9027 191.2 87.1842 192.526 90.1027C193.874 92.999 195.77 95.2916 198.219 96.9768C200.689 98.6619 203.619 99.5027 207.011 99.5027C210.493 99.5027 213.411 98.6619 215.77 96.9768C216.53 96.4286 217.219 95.8101 217.859 95.1397V98.4916H224.126V49.9805H217.052V64.6212ZM216.852 86.936C216.178 88.8694 215.111 90.3842 213.652 91.4842C212.193 92.5842 210.304 93.136 207.993 93.136C205.748 93.136 203.881 92.562 202.4 91.4175C200.941 90.2731 199.841 88.7323 199.1 86.8027C198.381 84.8471 198.022 82.6694 198.022 80.2657C198.022 77.8842 198.381 75.7286 199.1 73.799C199.841 71.8657 200.963 70.3286 202.47 69.1842C203.974 68.0397 205.896 67.4657 208.23 67.4657C210.43 67.4657 212.237 68.0064 213.652 69.0842C215.089 70.162 216.144 71.6657 216.819 73.599C217.515 75.5323 217.863 77.7545 217.863 80.2694C217.863 82.7842 217.526 85.0064 216.852 86.936Z" fill="#343A40"/>
<path d="M176.763 69.4175C174.404 68.0249 171.722 67.3286 168.711 67.3286C166.959 67.3286 165.196 67.6657 163.422 68.3397C162.319 68.7583 161.326 69.3064 160.411 69.962L161.233 56.6175H181.107V49.9805H154.93L153.448 75.4842L159.578 77.6397C160.341 76.6064 161.407 75.6953 162.778 74.9101C164.148 74.1249 165.822 73.7323 167.796 73.7323C169.526 73.7323 171.107 74.1582 172.548 75.0138C174.007 75.8434 175.163 76.9805 176.019 78.4175C176.896 79.8545 177.333 81.462 177.333 83.236C177.333 84.9657 176.907 86.5471 176.052 87.9879C175.222 89.4249 174.074 90.5694 172.615 91.4249C171.178 92.2768 169.57 92.7064 167.796 92.7064C166.448 92.7064 165.144 92.4249 163.889 91.8657C162.63 91.2805 161.53 90.462 160.589 89.4064C159.667 88.3508 159.019 87.1027 158.633 85.6657L151.863 87.4842C152.515 89.8434 153.604 91.9323 155.13 93.7508C156.656 95.5471 158.489 96.962 160.622 97.9953C162.778 99.0064 165.104 99.5101 167.596 99.5101C170.607 99.5101 173.393 98.7805 175.952 97.3212C178.511 95.8619 180.567 93.9064 182.119 91.4583C183.667 88.9879 184.444 86.2471 184.444 83.2397C184.444 80.2064 183.759 77.5027 182.389 75.1212C181.019 72.7101 179.141 70.8101 176.763 69.4175Z" fill="#343A40"/>
<path d="M124.089 39.3185C124.944 39.3185 125.641 38.6223 125.641 37.7667C125.641 36.9111 124.944 36.2148 124.089 36.2148C123.233 36.2148 122.537 36.9111 122.537 37.7667C122.537 38.6223 123.23 39.3185 124.089 39.3185Z" stroke="black" stroke-width="0.0740741"/>
<path d="M124.222 36.9141C124.296 36.9141 124.393 36.9326 124.448 36.9511C124.522 36.9696 124.563 37.0067 124.6 37.0659C124.637 37.103 124.674 37.1622 124.696 37.2178C124.715 37.2733 124.733 37.3326 124.733 37.4067C124.733 37.5215 124.696 37.6326 124.637 37.6918C124.581 37.7659 124.504 37.8252 124.43 37.8437L124.752 38.5252H124.526L124.222 37.8807H123.826V38.5252H123.637V36.9178H124.222V36.9141ZM123.822 37.7067H124.181C124.296 37.7067 124.389 37.6881 124.448 37.6326C124.504 37.577 124.544 37.4992 124.544 37.4067C124.544 37.2918 124.507 37.2178 124.448 37.1622C124.389 37.1067 124.296 37.0881 124.204 37.0881H123.844V37.7141H123.822V37.7067Z" fill="black" stroke="black" stroke-width="0.037037" stroke-miterlimit="10"/>
<defs>
<linearGradient id="paint0_linear_8398_33846" x1="76.9075" y1="123.759" x2="76.9075" y2="25.4997" gradientUnits="userSpaceOnUse">
<stop stop-color="#F3E209"/>
<stop offset="1" stop-color="#E11F26"/>
</linearGradient>
</defs>
</svg>
